<mxfile host="app.diagrams.net" modified="2021-04-08T04:22:46.986Z" agent="5.0 (X11; Linux x86_64) AppleWebKit/537.36 (KHTML, like Gecko) Chrome/89.0.4389.72 Safari/537.36" etag="EcOwbgC66dgJoEQ308W7" version="14.5.8" type="github">
  <diagram id="v8Gxxdk1MeCnfs2MzNJH" name="Page-1">
    <mxGraphModel dx="1662" dy="713" grid="1" gridSize="10" guides="1" tooltips="1" connect="1" arrows="1" fold="1" page="1" pageScale="1" pageWidth="827" pageHeight="583" math="0" shadow="0">
      <root>
        <mxCell id="0" />
        <mxCell id="1" parent="0" />
        <mxCell id="5SZJS_dKxNj0qXMMKKp0-1" value="" style="whiteSpace=wrap;html=1;aspect=fixed;" parent="1" vertex="1">
          <mxGeometry x="140" y="130" width="370" height="370" as="geometry" />
        </mxCell>
        <mxCell id="5SZJS_dKxNj0qXMMKKp0-2" value="Client" style="text;html=1;strokeColor=#b85450;fillColor=#f8cecc;align=center;verticalAlign=middle;whiteSpace=wrap;rounded=0;" parent="1" vertex="1">
          <mxGeometry x="290" y="90" width="70" height="40" as="geometry" />
        </mxCell>
        <mxCell id="5SZJS_dKxNj0qXMMKKp0-16" style="edgeStyle=orthogonalEdgeStyle;rounded=0;orthogonalLoop=1;jettySize=auto;html=1;exitX=1;exitY=0.5;exitDx=0;exitDy=0;" parent="1" source="5SZJS_dKxNj0qXMMKKp0-4" target="5SZJS_dKxNj0qXMMKKp0-15" edge="1">
          <mxGeometry relative="1" as="geometry" />
        </mxCell>
        <mxCell id="5SZJS_dKxNj0qXMMKKp0-4" value="Connect to server" style="rounded=0;whiteSpace=wrap;html=1;" parent="1" vertex="1">
          <mxGeometry x="160" y="200" width="330" height="40" as="geometry" />
        </mxCell>
        <mxCell id="5SZJS_dKxNj0qXMMKKp0-17" style="edgeStyle=orthogonalEdgeStyle;rounded=0;orthogonalLoop=1;jettySize=auto;html=1;exitX=0.5;exitY=0;exitDx=0;exitDy=0;entryX=0.5;entryY=0;entryDx=0;entryDy=0;" parent="1" source="5SZJS_dKxNj0qXMMKKp0-5" target="5SZJS_dKxNj0qXMMKKp0-15" edge="1">
          <mxGeometry relative="1" as="geometry" />
        </mxCell>
        <mxCell id="5SZJS_dKxNj0qXMMKKp0-5" value="ip" style="rounded=1;whiteSpace=wrap;html=1;" parent="1" vertex="1">
          <mxGeometry x="160" y="160" width="160" height="30" as="geometry" />
        </mxCell>
        <mxCell id="5SZJS_dKxNj0qXMMKKp0-18" style="edgeStyle=orthogonalEdgeStyle;rounded=0;orthogonalLoop=1;jettySize=auto;html=1;exitX=0.5;exitY=0;exitDx=0;exitDy=0;entryX=0.5;entryY=0;entryDx=0;entryDy=0;" parent="1" source="5SZJS_dKxNj0qXMMKKp0-6" target="5SZJS_dKxNj0qXMMKKp0-15" edge="1">
          <mxGeometry relative="1" as="geometry" />
        </mxCell>
        <mxCell id="5SZJS_dKxNj0qXMMKKp0-6" value="port" style="rounded=1;whiteSpace=wrap;html=1;" parent="1" vertex="1">
          <mxGeometry x="330" y="160" width="160" height="30" as="geometry" />
        </mxCell>
        <mxCell id="5SZJS_dKxNj0qXMMKKp0-7" value="Close server" style="rounded=0;whiteSpace=wrap;html=1;" parent="1" vertex="1">
          <mxGeometry x="160" y="450" width="330" height="40" as="geometry" />
        </mxCell>
        <mxCell id="5SZJS_dKxNj0qXMMKKp0-8" value="" style="rounded=0;whiteSpace=wrap;html=1;" parent="1" vertex="1">
          <mxGeometry x="160" y="280" width="330" height="60" as="geometry" />
        </mxCell>
        <mxCell id="5SZJS_dKxNj0qXMMKKp0-9" value="Message from server" style="text;html=1;strokeColor=none;fillColor=none;align=center;verticalAlign=middle;whiteSpace=wrap;rounded=0;" parent="1" vertex="1">
          <mxGeometry x="262.5" y="260" width="125" height="20" as="geometry" />
        </mxCell>
        <mxCell id="5SZJS_dKxNj0qXMMKKp0-10" value="Send message" style="text;html=1;strokeColor=none;fillColor=none;align=center;verticalAlign=middle;whiteSpace=wrap;rounded=0;" parent="1" vertex="1">
          <mxGeometry x="262.5" y="350" width="125" height="20" as="geometry" />
        </mxCell>
        <mxCell id="5SZJS_dKxNj0qXMMKKp0-24" style="edgeStyle=orthogonalEdgeStyle;rounded=0;orthogonalLoop=1;jettySize=auto;html=1;entryX=0;entryY=0.5;entryDx=0;entryDy=0;" parent="1" source="5SZJS_dKxNj0qXMMKKp0-11" target="5SZJS_dKxNj0qXMMKKp0-21" edge="1">
          <mxGeometry relative="1" as="geometry" />
        </mxCell>
        <mxCell id="5SZJS_dKxNj0qXMMKKp0-11" value="" style="rounded=0;whiteSpace=wrap;html=1;" parent="1" vertex="1">
          <mxGeometry x="160" y="370" width="330" height="60" as="geometry" />
        </mxCell>
        <mxCell id="5SZJS_dKxNj0qXMMKKp0-15" value="connect_server(ip, port)" style="rounded=1;whiteSpace=wrap;html=1;" parent="1" vertex="1">
          <mxGeometry x="570" y="200" width="200" height="40" as="geometry" />
        </mxCell>
        <mxCell id="5SZJS_dKxNj0qXMMKKp0-23" style="edgeStyle=orthogonalEdgeStyle;rounded=0;orthogonalLoop=1;jettySize=auto;html=1;entryX=1;entryY=0.5;entryDx=0;entryDy=0;" parent="1" source="5SZJS_dKxNj0qXMMKKp0-20" target="5SZJS_dKxNj0qXMMKKp0-8" edge="1">
          <mxGeometry relative="1" as="geometry" />
        </mxCell>
        <mxCell id="5SZJS_dKxNj0qXMMKKp0-20" value="message queue to receive" style="rounded=1;whiteSpace=wrap;html=1;" parent="1" vertex="1">
          <mxGeometry x="570" y="290" width="200" height="40" as="geometry" />
        </mxCell>
        <mxCell id="eallTrSMmqoQsFCP1gYU-1" style="edgeStyle=orthogonalEdgeStyle;rounded=0;orthogonalLoop=1;jettySize=auto;html=1;exitX=1;exitY=0.5;exitDx=0;exitDy=0;entryX=0;entryY=0.5;entryDx=0;entryDy=0;" edge="1" parent="1" source="5SZJS_dKxNj0qXMMKKp0-21" target="5SZJS_dKxNj0qXMMKKp0-28">
          <mxGeometry relative="1" as="geometry" />
        </mxCell>
        <mxCell id="5SZJS_dKxNj0qXMMKKp0-21" value="message queue to send" style="rounded=1;whiteSpace=wrap;html=1;" parent="1" vertex="1">
          <mxGeometry x="570" y="380" width="200" height="40" as="geometry" />
        </mxCell>
        <mxCell id="5SZJS_dKxNj0qXMMKKp0-27" style="edgeStyle=orthogonalEdgeStyle;rounded=0;orthogonalLoop=1;jettySize=auto;html=1;entryX=1;entryY=0.5;entryDx=0;entryDy=0;" parent="1" source="5SZJS_dKxNj0qXMMKKp0-26" target="5SZJS_dKxNj0qXMMKKp0-20" edge="1">
          <mxGeometry relative="1" as="geometry" />
        </mxCell>
        <mxCell id="5SZJS_dKxNj0qXMMKKp0-26" value="receive_message_from_server()" style="rounded=1;whiteSpace=wrap;html=1;" parent="1" vertex="1">
          <mxGeometry x="860" y="290" width="200" height="40" as="geometry" />
        </mxCell>
        <mxCell id="5SZJS_dKxNj0qXMMKKp0-28" value="send_message_to_server()" style="rounded=1;whiteSpace=wrap;html=1;" parent="1" vertex="1">
          <mxGeometry x="860" y="380" width="200" height="40" as="geometry" />
        </mxCell>
      </root>
    </mxGraphModel>
  </diagram>
</mxfile>
